<svg version="1.0" xmlns="http://www.w3.org/2000/svg"
 width="256.000000pt" height="256.000000pt" viewBox="0 0 256.000000 256.000000"
 preserveAspectRatio="xMidYMid meet">

<g transform="translate(0.000000,256.000000) scale(0.100000,-0.100000)"
fill="#95B4CA" stroke="none">
<path d="M1060 2525 c-236 -40 -470 -159 -648 -329 -216 -207 -347 -468 -382
-766 -68 -576 263 -1119 810 -1328 281 -107 628 -104 910 8 258 103 492 306
628 548 115 202 162 383 162 622 0 285 -83 539 -247 759 -195 260 -497 443
-810 490 -95 14 -329 12 -423 -4z m-134 -687 c177 -174 191 -196 181 -284 -4
-38 0 -46 32 -80 68 -73 68 -66 9 -123 -29 -28 -58 -51 -63 -51 -6 0 -31 20
-55 45 -43 44 -45 45 -110 45 -88 0 -105 12 -288 202 -154 158 -166 179 -120
194 17 5 47 -20 162 -135 78 -78 146 -141 152 -141 6 0 18 8 27 18 15 17 8 26
-128 162 -80 80 -145 148 -145 152 0 18 54 69 71 66 10 -2 84 -66 164 -142
131 -125 148 -137 162 -124 22 23 11 38 -142 185 -123 119 -135 134 -125 152
22 41 48 24 216 -141z m1123 80 c21 -23 31 -43 31 -65 0 -36 23 -11 -530 -583
-543 -562 -644 -665 -665 -677 -50 -30 -115 1 -115 56 0 45 41 95 244 292
l191 186 -23 41 c-12 22 -22 48 -22 59 0 26 568 590 640 635 59 37 174 87 202
88 9 0 31 -15 47 -32z m-311 -1032 c184 -186 202 -207 202 -238 0 -23 -8 -41
-22 -55 -54 -49 -83 -38 -214 82 -48 44 -139 127 -202 185 l-115 105 69 62
c37 35 71 63 74 63 3 0 96 -92 208 -204z"/>
</g>
</svg>
